<svg width="22" height="22" viewBox="0 0 22 22" fill="none" xmlns="http://www.w3.org/2000/svg">
<path d="M12.4099 12.4096L14.3821 14.3819M14.7232 16.712C14.5857 16.5829 14.4756 16.4276 14.3994 16.2552C14.3232 16.0828 14.2823 15.8968 14.2794 15.7083C14.2764 15.5198 14.3114 15.3326 14.3821 15.1579C14.4529 14.9832 14.5581 14.8244 14.6914 14.6911C14.8247 14.5578 14.9834 14.4527 15.1581 14.3819C15.3329 14.3111 15.52 14.2762 15.7085 14.2791C15.897 14.2821 16.083 14.3229 16.2554 14.3991C16.4279 14.4754 16.5832 14.5855 16.7122 14.7229L20.9998 19.0109L19.0107 21L14.7232 16.712ZM14.3115 7.65561C14.3115 5.89043 13.6102 4.19755 12.3621 2.94938C11.1139 1.70121 9.42103 1 7.65585 1C5.89068 1 4.1978 1.70121 2.94963 2.94938C1.70146 4.19755 1.00024 5.89043 1.00024 7.65561C1.00024 9.42079 1.70146 11.1137 2.94963 12.3618C4.1978 13.61 5.89068 14.3112 7.65585 14.3112C9.42103 14.3112 11.1139 13.61 12.3621 12.3618C13.6102 11.1137 14.3115 9.42079 14.3115 7.65561Z" stroke="white" stroke-width="1.90483" stroke-linecap="round" stroke-linejoin="round"/>
</svg>
