<svg width="56" height="56" viewBox="0 0 56 56" fill="none" xmlns="http://www.w3.org/2000/svg">
<rect width="56" height="56" rx="28" fill="#E0DEFF"/>
<path d="M32.8766 16.1019C33.0234 16.187 33.137 16.3194 33.1988 16.4774C33.2607 16.6355 33.2671 16.8098 33.2171 16.9719L30.5156 25.7499H35.5001C35.6465 25.7499 35.7898 25.7927 35.9122 25.8732C36.0347 25.9536 36.1308 26.0681 36.1889 26.2026C36.247 26.3371 36.2644 26.4856 36.239 26.6299C36.2136 26.7742 36.1465 26.9078 36.0461 27.0144L24.0461 39.7644C23.9299 39.8879 23.7754 39.9684 23.6077 39.9928C23.44 40.0172 23.2689 39.9841 23.1225 39.8989C22.976 39.8136 22.8627 39.6813 22.801 39.5234C22.7394 39.3655 22.7331 39.1914 22.7831 39.0294L25.4846 30.2499H20.5001C20.3536 30.25 20.2103 30.2072 20.0879 30.1267C19.9654 30.0463 19.8693 29.9317 19.8112 29.7972C19.7531 29.6628 19.7357 29.5142 19.7611 29.37C19.7865 29.2257 19.8536 29.092 19.9541 28.9854L31.9541 16.2354C32.07 16.1121 32.2243 16.0317 32.3918 16.0072C32.5593 15.9827 32.7301 16.0155 32.8766 16.1004V16.1019Z" stroke="#634AFF" stroke-width="2"/>
</svg>
