<svg width="56" height="56" viewBox="0 0 56 56" fill="none" xmlns="http://www.w3.org/2000/svg">
<rect width="56" height="56" rx="28" fill="#E0DEFF"/>
<path d="M20.035 31.479C20.0119 31.6517 20.0002 31.8258 20 32C20 34.378 22.138 36.284 24.521 35.964C25.214 37.198 26.534 38 28 38C29.466 38 30.786 37.198 31.479 35.964C33.857 36.284 36 34.378 36 32C36 31.827 35.988 31.653 35.965 31.479C37.198 30.786 38 29.465 38 28C38 26.535 37.198 25.214 35.965 24.521C35.988 24.347 36 24.173 36 24C36 21.622 33.857 19.712 31.479 20.036C30.786 18.802 29.466 18 28 18C26.534 18 25.214 18.802 24.521 20.036C22.138 19.712 20 21.622 20 24C20 24.173 20.012 24.347 20.035 24.521C18.802 25.214 18 26.535 18 28C18 29.465 18.802 30.786 20.035 31.479ZM21.477 26.076L22.579 25.783L22.145 24.73C22.0498 24.4984 22.0006 24.2504 22 24C22 22.897 22.897 22 24 22C24.247 22 24.499 22.05 24.73 22.145L25.784 22.579L26.077 21.477C26.1899 21.0532 26.4396 20.6785 26.7873 20.4112C27.1351 20.1439 27.5614 19.999 28 19.999C28.4386 19.999 28.8649 20.1439 29.2127 20.4112C29.5604 20.6785 29.8101 21.0532 29.923 21.477L30.216 22.579L31.27 22.145C31.501 22.05 31.753 22 32 22C33.103 22 34 22.897 34 24C34 24.247 33.95 24.5 33.855 24.73L33.421 25.783L34.523 26.076C34.9458 26.1903 35.3193 26.4406 35.5856 26.7884C35.8518 27.1362 35.9961 27.562 35.9961 28C35.9961 28.438 35.8518 28.8638 35.5856 29.2116C35.3193 29.5594 34.9458 29.8097 34.523 29.924L33.421 30.217L33.855 31.27C33.95 31.5 34 31.753 34 32C34 33.103 33.103 34 32 34C31.753 34 31.501 33.95 31.27 33.855L30.216 33.421L29.923 34.523C29.8101 34.9468 29.5604 35.3215 29.2127 35.5888C28.8649 35.8561 28.4386 36.001 28 36.001C27.5614 36.001 27.1351 35.8561 26.7873 35.5888C26.4396 35.3215 26.1899 34.9468 26.077 34.523L25.784 33.421L24.73 33.855C24.4983 33.9501 24.2504 33.9994 24 34C22.897 34 22 33.103 22 32C22 31.753 22.05 31.5 22.145 31.27L22.579 30.217L21.477 29.924C21.0542 29.8097 20.6807 29.5594 20.4144 29.2116C20.1482 28.8638 20.0039 28.438 20.0039 28C20.0039 27.562 20.1482 27.1362 20.4144 26.7884C20.6807 26.4406 21.0542 26.1903 21.477 26.076Z" fill="#634AFF"/>
<path d="M31.742 26.71L30.334 25.29L27.003 28.589L25.707 27.293L24.293 28.707L26.997 31.411L31.742 26.71Z" fill="#634AFF"/>
</svg>
