<svg width="57" height="56" viewBox="0 0 57 56" fill="none" xmlns="http://www.w3.org/2000/svg">
<rect x="0.5" width="56" height="56" rx="12" fill="#F7F6FF"/>
<path d="M30.0002 17.5V19.7222C30.0002 21.8169 30.0002 22.8643 30.6521 23.5147C31.301 24.1665 32.3483 24.1665 34.4446 24.1665H36.6667" stroke="#634AFF" stroke-width="2" stroke-linecap="round" stroke-linejoin="round"/>
<path d="M23.8334 30.3333H33.1667M23.8334 33.8333H28.6984M19.1667 32.6666V23.3333C19.1667 20.0339 19.1667 18.3831 20.1922 17.3588C21.2166 16.3333 22.8674 16.3333 26.1667 16.3333H29.0341C29.5101 16.3333 29.7492 16.3333 29.9639 16.4219C30.1774 16.5106 30.3466 16.6786 30.6837 17.0169L37.1497 23.4829C37.4881 23.8213 37.6561 23.9893 37.7447 24.2039C37.8334 24.4174 37.8334 24.6566 37.8334 25.1326V32.6666C37.8334 35.9659 37.8334 37.6168 36.8079 38.6411C35.7836 39.6666 34.1327 39.6666 30.8334 39.6666H26.1667C22.8674 39.6666 21.2166 39.6666 20.1922 38.6411C19.1667 37.6168 19.1667 35.9659 19.1667 32.6666Z" stroke="#634AFF" stroke-width="2" stroke-linecap="round" stroke-linejoin="round"/>
</svg>
