<svg width="57" height="56" viewBox="0 0 57 56" fill="none" xmlns="http://www.w3.org/2000/svg">
<rect x="0.5" width="56" height="56" rx="12" fill="#F7F6FF"/>
<path d="M30.6977 30.1977L33.443 32.943M33.3694 35.1667C33.2107 35.0177 33.0835 34.8383 32.9955 34.6391C32.9075 34.44 32.8603 34.2252 32.8569 34.0075C32.8535 33.7898 32.8938 33.5736 32.9756 33.3718C33.0573 33.17 33.1788 32.9867 33.3327 32.8327C33.4867 32.6788 33.67 32.5573 33.8718 32.4756C34.0736 32.3938 34.2898 32.3535 34.5075 32.3569C34.7252 32.3603 34.94 32.4075 35.1391 32.4955C35.3383 32.5835 35.5177 32.7107 35.6667 32.8694L39.0073 36.21C39.166 36.359 39.2932 36.5384 39.3812 36.7376C39.4693 36.9367 39.5164 37.1515 39.5198 37.3692C39.5232 37.5869 39.4829 37.8031 39.4012 38.0049C39.3194 38.2067 39.198 38.39 39.044 38.544C38.89 38.698 38.7067 38.8194 38.5049 38.9012C38.3031 38.9829 38.0869 39.0232 37.8692 39.0198C37.6515 39.0164 37.4367 38.9693 37.2376 38.8812C37.0384 38.7932 36.859 38.666 36.71 38.5073L33.3694 35.1667ZM32.8939 24.707C32.8939 22.6683 32.0841 20.7131 30.6425 19.2715C29.2009 17.8299 27.2457 17.02 25.207 17.02C23.1683 17.02 21.2131 17.8299 19.7715 19.2715C18.3299 20.7131 17.52 22.6683 17.52 24.707C17.52 26.7457 18.3299 28.7009 19.7715 30.1425C21.2131 31.5841 23.1683 32.3939 25.207 32.3939C27.2457 32.3939 29.2009 31.5841 30.6425 30.1425C32.0841 28.7009 32.8939 26.7457 32.8939 24.707Z" stroke="#634AFF" stroke-width="2.5" stroke-linecap="round" stroke-linejoin="round"/>
</svg>
